<?xml version="1.0" encoding="UTF-8"?>
<svg id="Capa_2" data-name="Capa 2" xmlns="http://www.w3.org/2000/svg" viewBox="0 0 772.75 882.2">
  <defs>
    <style>
      .cls-1 {
        fill: none;
        stroke: #333;
        stroke-miterlimit: 10;
        stroke-width: 14px;
      }

      .cls-2 {
        fill: #29371c;
      }

      .cls-2, .cls-3 {
        stroke-width: 0px;
      }

      .cls-3 {
        fill: #bc6c23;
      }
    </style>
  </defs>
  <g id="Capa_1-2" data-name="Capa 1">
    <path class="cls-3" d="M445.83,290.56c0,50.59-14.66,87.24-30.06,112.17-6.6,11-5.87,21.26.73,31.52,8.8,13.2,21.26,30.06,21.26,50.58v106.3c0,13.2,1.47,23.46,3.67,32.99,2.93,12.46-2.2,23.46-16.13,23.46h-49.12c-5.13,0-8.06-2.2-10.26-5.13-.73-.73-.73-1.47-.73-1.47-5.87-11-8.06-27.13-8.06-52.05v-105.57c0-14.66-2.93-25.66-11-32.26-3.67-4.4-9.53-5.13-14.66-5.13h-26.39c-19.79,0-33.72,13.93-33.72,33.72v153.22c0,8.06-6.6,14.66-14.66,14.66h-51.32c-8.06,0-14.66-6.6-14.66-14.66V149.07c0-8.06,6.6-14.66,14.66-14.66h123.9c83.58,0,116.57,44.72,116.57,156.16ZM212.69,553.76c0-.73,0-2.2-.73-2.2-1.47,0-1.47.73-1.47,1.47q2.2,1.47,2.2.73ZM250.82,174.73c0,.73-.73,1.47-1.47,2.2-4.4-3.67-11.73-2.2-17.6.73l.73-1.47-1.47,1.47s-.73,0-.73.73v-.73l-4.4-4.4c-.73-.73-1.47-.73-2.2-.73-2.2,1.47-4.4,2.93-6.6,5.13-5.13,9.53-3.67,14.66.73,18.33-1.47,1.47-.73.73.73,0l-2.93,2.93c-.73.73-.73,1.47-.73,1.47l-2.2,2.93c2.2,1.47,4.4,2.2,5.86,3.67,1.47,0,3.67-.73,4.4-1.47l.73,3.67c2.2,4.4,5.87.73,6.6-2.2v-4.4c.73.73,2.2.73,3.67,0-.73,4.4-1.47,5.87-.73,10.26.73,1.47.73,2.2,1.47,2.2-.73.73-2.2,1.47-2.2,2.93-1.47-.73-2.2-.73-2.93,0,0-2.2-.73-3.67-2.2-5.13l1.47,5.13c-1.47.73-1.47,1.47-2.2,2.93l-.73.73c0,.73-.73,2.2,0,2.93v.73l-2.2,1.47v-.73l-3.67-4.4-3.67,6.6,4.4,2.2c-.73,0-.73.73-.73.73.73,1.47,1.47,2.93,2.93,3.67l-.73,1.47h2.2c0,.73.73,1.47.73,1.47l-2.93-.73,2.93,5.13,1.47-2.93c0,1.47,0,2.93-.73,3.67-2.2,2.2-2.2,3.67-.73,4.4,0,1.47-1.47,1.47-2.93,1.47l1.47,2.93,7.33-2.2v-3.67h-.73l1.47-1.47c2.2,1.47,5.13-1.47,4.4-4.4-.73-.73-.73-2.2-.73-3.67v-.73c2.2-1.47,4.4-3.67,5.86-7.33l-3.67-2.2c0-.73-.73-1.47-.73-2.2l2.2-1.47c1.47,1.47,3.67,3.67,5.86,3.67-1.47-1.47-2.93-3.67-5.86-4.4.73-1.47.73-2.2,0-3.67.73-2.2,0-2.93-1.47-3.67l2.2-3.67c0-7.33,1.47-12.46-.73-16.13.73-2.93,2.2-4.4,1.47-8.06,2.2-.73,2.93-1.47,4.4-.73l-3.67,2.93,2.2,4.4c2.93,0,5.87-1.47,8.06-3.67-2.93,0-5.86-.73-6.6-3.67l2.93,1.47,5.13-2.2v3.67l5.13-6.6h-1.47c-1.47,0-2.2,0-2.93.73,0-1.47-.73-2.2-1.47-2.2l-1.47-2.2,1.47-2.2-2.2-3.67c.73.73.73,1.47.73,2.2ZM215.63,351.41c-.73.73-1.47,1.47-1.47,2.93,0,0,.73.73,1.47.73v-3.67ZM215.63,375.61l3.67.73c0-2.2-.73-5.13-2.93-6.6,0,1.47,0,5.13-.73,5.87ZM219.29,522.96l-2.93-2.93c0,.73-.73,1.47-.73,2.93,0,5.13,1.47,10.26,2.93,15.4l1.47-4.4c0-.73-.73-11-.73-11ZM217.09,660.06h39.59c14.66,0,27.13-12.46,27.13-27.12v-153.22c0-12.46,8.8-21.26,21.26-21.26h26.39c2.2,0,4.4,0,5.86,1.47,2.2,2.2,4.4,5.13,5.13,8.06h-11.73c-19.79,0-33.72,13.93-33.72,33.72v153.22c0,8.06-6.6,14.66-14.66,14.66h-51.32c-6.6,0-11.73-4.4-13.93-9.53ZM219.29,597.74c0-.73.73-1.47.73-2.2s-.73-1.47-.73-2.2l-2.2.73c0,1.47.73,3.67,2.2,3.67ZM219.29,262.7c0,1.47-.73,2.2-1.47,3.67l2.93,1.47v.73h1.47c.73,0,1.47.73,2.2.73,2.93,0,4.4-.73,5.13-2.2h.73c1.47-2.2,2.93-5.87.73-5.87v-2.2c0-2.2-2.93-3.67-5.13-.73-.73-.73-1.47-.73-2.2,0-1.47,0-2.93.73-3.67,2.2-.73.73-.73,1.47-.73,2.2ZM236.15,495.1v-9.53s0-.73.73-1.47c-.73,0-.73-.73-.73-.73v-1.47l-.73.73-3.67-3.67c-11.73,0-19.79,19.06-6.6,24.93-.73,6.6,0,13.2,1.47,20.53v1.47l1.47,8.06,4.4-2.2c3.67,0,6.6-5.13,2.2-6.6,0-.73-.73-1.47-1.47-1.47v-.73c2.2-8.8,2.93-16.86,2.93-24.93,1.47-.73,2.93-2.2,4.4-3.67l-.73-1.47-3.67,2.2ZM231.02,338.95c-.73,0-.73.73-1.47,1.47-3.67,3.67-2.93,2.2-4.4,5.13l-5.13-4.4-1.47,12.46c2.2-.73,2.93-2.2,2.93-4.4l2.93-1.47c0,1.47.73,3.67.73,5.87,2.2-1.47,2.93,0,5.87-.73-.73.73-.73,1.47-.73,2.2-3.67,1.47-.73,8.06,2.2,10.26-2.2,2.2-2.93,3.67-2.2,5.86v.73c.73,1.47,1.47,3.67,2.2,3.67l-2.93,2.93c0,.73.73,1.47,1.47,1.47h-2.2c-1.47,2.2-2.2,5.13-2.2,7.33,0,1.47,0,2.93.73,3.67-1.47,6.6-.73,13.93,1.47,18.33l-6.6,2.2,1.47,1.47.73-1.47s.73,0,1.47.73v.73l-1.47.73.73.73-.73,6.6c.73,0,.73.73,1.47.73l1.47,1.47-3.67.73-.73-4.4-2.93,2.93,1.47,3.67c2.2-.73,5.13-.73,7.33-.73l-.73-.73,2.2,1.47c-.73,1.47-.73,2.93,0,4.4-1.47,3.67-3.67,6.6-4.4,10.26-1.47,0-2.93.73-3.67,2.93,1.47,0,2.93-.73,3.67-2.2v3.67c-1.47.73-3.67,0-3.67,2.2l1.47.73c1.47,0,1.47-.73,2.2-2.2l1.47,2.2h1.47c-1.47,3.67-2.93,7.33-2.93,11l-1.47-6.6-1.47,5.13-4.4-.73,5.87,5.13h1.47l2.2,2.2h5.13c0,.73,0,2.2.73,2.93v.73l7.33-3.67c0-4.4,0-5.13-.73-7.33l10.26,6.6-3.67-5.13c-.73-.73-1.47-.73-1.47-.73-2.2-1.47-4.4-4.4-6.6-5.13,0-.73,0-1.47.73-2.2,2.93-5.86,5.87-10.26,1.47-15.39h-.73v-.73c4.4-3.67,6.6-5.13,7.33-7.33l2.2-1.47c.73,1.47,1.47,2.2,2.93,2.2.73-1.47,1.47-2.93,1.47-4.4.73,0,1.47,0,2.93-1.47l5.13-2.2s0,.73.73.73v4.4h6.6c.73,1.47,2.93,0,4.4-1.47,1.47,0,4.4-2.2,5.13-4.4,2.2,2.2,4.4,2.93,6.6,2.93h1.47l5.13-2.2c-.73,1.47-1.47,2.93-2.93,4.4,1.47-.73,3.67-.73,5.86-.73l1.47-5.13c1.47.73,9.53,2.93,12.46,4.4l5.86-4.4,2.93-.73c2.93-.73,7.33-15.4,8.8-20.53l-10.26,14.66-.73-5.86c-1.47-4.4-6.6-1.47-6.6,2.2v1.47c-8.06-3.67-12.46-2.2-16.13-.73v-1.47l-3.67-2.93,4.4-.73c0-3.67,0-7.33.73-10.26l-5.87,3.67-.73-3.67c-.73.73-1.47,2.2-1.47,2.93,0,2.2,1.47,5.13,1.47,7.33,0,.73-.73,2.2-1.47,2.93l2.93,4.4c-1.47,1.47-3.67,2.2-5.87,2.2v-.73l2.93-2.93-2.93.73c0-2.2,0-3.67.73-5.86v-.73c.73-.73.73-1.47.73-2.2h-4.4c0-.73-1.47-.73-1.47-.73l-8.06-4.4,6.6,4.4-.73,1.47-1.47,1.47c-.73-.73-2.93-1.47-4.4-.73l-4.4,1.47-1.47-2.93,3.67.73v-5.13l-7.33,2.2-1.47,5.13c-1.47,0-2.2,0-2.93,1.47-1.47,0-2.93.73-3.67,1.47.73-.73.73-2.2.73-2.93l2.93-2.2c-2.2-13.2-6.6-14.66-8.06-23.46-1.47-2.93-3.67-2.2-5.13-.73-.73-1.47-2.2-2.2-3.67-2.93l4.4-6.6-3.67-1.47c.73-.73,0-1.47-2.2-2.93v-1.47c2.93-10.26,0-7.33-2.2-9.53l-1.47-1.47c1.47-.73,1.47-2.2,0-3.67.73-2.2.73-4.4,0-5.86.73-2.2,0-3.67-1.47-3.67,1.47-.73,2.93-2.2,2.2-4.4.73-11-1.47-7.33-2.93-10.26,1.47-5.13-5.13-4.4-6.6,0-4.4,5.86-2.93,11,3.67,13.93,0,1.47.73,1.47.73,1.47ZM230.29,338.22h-11.73l8.8,2.93,2.93-2.93ZM219.29,407.86v.73c0,.73.73.73.73,1.47.73,0,1.47,0,1.47-1.47s-.73-2.2-2.2-2.2h-.73q.73.73.73,1.47ZM218.56,518.57c.73,1.47,2.2,2.93,3.67,4.4,0-.73-2.93-3.67-3.67-4.4ZM218.56,614.6l2.93-1.47c-1.47,0-1.47-1.47-2.93-1.47v2.93ZM219.29,434.99c2.2-.73,4.4-1.47,4.4-4.4-2.93,0-3.67,2.2-4.4,4.4ZM219.29,559.62c2.93,0,2.2,2.93,2.2,5.13,2.2-2.2,4.4-4.4,5.13-7.33l-7.33,2.2ZM220.02,586.01c.73-.73,2.2-1.47,2.93-1.47l1.47,1.47v-4.4l3.67-.73-2.93,2.2,8.8-5.13c-7.33,0-12.46,3.67-13.93,8.06ZM221.49,259.77c.73-.73,1.47-.73,1.47-.73q-.73.73-1.47.73ZM224.42,547.16c-1.47,0-2.93.73-2.93,2.2v.73c.73-.73,3.67-.73,5.13-.73,0-1.47-1.47-2.2-2.2-2.2ZM222.22,575.75c.73,1.47,1.47,2.93,4.4,0,5.13,0,4.4-2.93,5.87-6.6,2.2-2.2,2.93-5.87,0-5.87,0-.73,0-1.47-.73-2.2l.73-1.47-1.47.73q0,.73.73.73l-2.2,2.93c-6.6-.73-5.87,6.6-5.87,7.33l-1.47,2.2-.73-.73c0,1.47,0,2.2.73,2.93ZM227.36,593.34l5.86,3.67v-2.2c0-1.47-.73-3.67-2.2-5.13l-3.67,3.67ZM241.29,600.67l-11,4.4-1.47-1.47-.73,5.13,2.93,5.87c.73-5.13,6.6-11,10.26-13.93ZM236.15,578.68c-2.93,1.47-2.93,5.13-2.93,8.06v2.93l4.4-2.2v-7.33l1.47-2.93-1.47-3.67-1.47,5.13ZM236.15,571.35c.73,0,2.2,0,2.93-.73-1.47,0-2.2-2.2-3.67-2.2l-1.47.73,2.2,2.2ZM239.82,163.73l2.93-2.93h-.73c-2.2,0-3.67-1.47-5.13-1.47-.73,0-2.2.73-2.2,1.47l5.13,2.93ZM242.02,387.34v5.13c-.73.73-2.2.73-3.67.73,0-.73,0-1.47.73-2.93h.73l2.2-2.93ZM239.82,594.81v4.4l6.6-3.67-4.4,2.2c0-1.47-.73-2.93-2.2-2.93ZM240.55,168.13c2.2,0,2.2-2.2,3.67-2.93-2.2,0-2.2,2.2-3.67,2.93ZM242.02,336.02l4.4-10.26-1.47-7.33c0,6.6-1.47,11.73-2.93,17.59ZM243.48,558.15c-.73,0-1.47,1.47-1.47,2.2s.73,1.47,1.47,1.47l1.47-2.93c-.73,0-.73-.73-1.47-.73ZM247.15,152l-3.67,5.87,8.06-5.13.73,2.2-2.93,5.13,5.86-3.67-.73-6.6-7.33-2.2v4.4ZM244.22,415.19v-1.47h.73l.73-1.46,3.67-2.93c-.73.73-2.2,1.47-2.2.73,0,0,.73-.73.73-1.47q.73,0,1.47-.73l.73-.73c.73.73,1.47.73,2.93.73l-3.67,2.93-1.47,1.47-3.67,2.93ZM246.42,569.88c0,2.2-2.2,3.67-2.2,5.87v1.47l5.86,1.47-3.67-8.8ZM248.62,172.53q.73,0,.73-.73c-1.47-.73-2.93-1.47-3.67-2.93,0,1.47,1.47,3.67,2.93,3.67ZM247.15,163l2.93.73c.73-.73.73-1.47.73-2.2s0-.73-.73-.73l-2.93,2.2ZM247.15,369.74l3.67,7.33,2.2-3.67-2.2-5.86-3.67,2.2ZM247.88,596.28c.73,0,.73-.73,1.47-.73l-2.2-2.93c0,.73,0,3.67.73,3.67ZM251.55,219.45c-.73,0-2.2,1.47-2.2,2.2l3.67,1.47,1.47,2.93v-5.86l-2.93-.73ZM251.55,365.34h.73c.73,0,1.47-1.47,1.47-2.2s0-.73-.73-.73c0,2.93,0,1.47-1.47,2.93ZM252.28,214.32l3.67.73v-1.47c0-1.47,0-2.93-1.47-2.93,0,2.2-2.2,1.47-2.2,3.67ZM252.28,359.48h2.93l6.6,9.53,4.4-5.13-5.13-3.67v-12.46l-5.87.73c0,2.2.73,4.4.73,6.6l-3.67,4.4ZM255.21,391l2.93.73c2.93,0,4.4-2.93,4.4-5.86h-4.4l-2.93,5.13ZM255.95,438.65v.73l2.2-2.2c0-.73-.73-2.2-1.47-2.2,0,1.47-.73,2.93-.73,3.67ZM257.41,172.53h.73q-.73-.73-1.47-.73,0,.73.73.73ZM261.08,430.59c0,2.93,1.47,8.06,5.13,8.06,2.2,0,3.67-2.2,4.4-3.67l-8.8-6.6-.73,2.2ZM261.81,377.81c0-.73,1.47-2.2,1.47-3.67q0-.73-.73-.73c0,1.47-.73,2.93-.73,4.4ZM261.81,377.81c0,.73,0,1.47.73,1.47l.73-.73c-.73,0-1.47-.73-1.47-.73ZM261.81,404.93l2.2.73c-1.47,0-2.2,0-2.2-.73ZM300.67,365.34h28.59c25.66,0,35.92-21.26,35.92-74.78s-10.26-75.51-35.92-75.51h-24.19c-19.79,0-33.72,13.93-33.72,33.72v82.84c0,19.79,12.46,33.72,29.32,33.72ZM276.48,428.39c.73-.73,2.2-.73.73-2.2,0,.73-.73,1.47-.73,2.2ZM283.81,248.78c0-12.46,8.8-21.26,21.26-21.26h24.19c6.6,0,11.73,2.93,15.4,9.53h-13.93c-19.79,0-33.72,13.93-33.72,33.72v82.11c-8.06-2.2-13.2-10.26-13.2-21.26v-82.84ZM290.4,155.67l-3.67,7.33c-.73.73,1.47,2.2,2.2,2.2l3.67,6.6-1.47-8.06,10.26-1.47-5.87-5.13.73-2.2-5.87.73ZM305.8,178.4q0-.73.73-1.47c5.13,0,5.13-9.53-2.2-9.53l-2.2-.73v2.93c-.73,2.93-1.47,5.86-1.47,8.06,2.2-1.47,3.67,1.47,4.4.73v2.2l-9.53,2.2,5.13,5.86c.73,0,3.67-.73,3.67-.73h2.2l-1.47-5.13,2.2-2.93c-1.47,0-1.47-.73-1.47-1.47ZM296.27,179.86l4.4-2.2c-2.93,0-2.93-.73-4.4-2.93v5.13ZM304.33,404.2c0-1.47-.73-1.47-2.2-1.47h-.73l2.93,1.47ZM305.07,163c.73.73,2.93.73,3.67.73-1.47-.73-2.2-.73-3.67-.73ZM324.13,174.73c-.73,0-1.47-.73-1.47-1.47l-5.87-1.47c0,2.93-1.47,2.93-2.93,8.8l.73-.73c.73,0,1.47,2.93,2.2,3.67l.73-1.47,7.33-1.47.73-6.6q-.73,0-1.47.73ZM319.73,399.07c0,1.47.73,4.4,2.2,4.4l.73-6.6-2.93,2.2ZM321.93,187.93c0-2.93,0-3.67,2.93-4.4h-1.47c-.73,0-1.47-.73-2.2-.73h-.73l1.47,5.13ZM321.2,163l5.13.73c-.73-1.47-2.2-2.93-3.67-2.93l-1.47,2.2ZM322.66,170.33v.73c1.47,0,2.93-.73,3.67-2.2-2.2,0-3.67,0-3.67,1.47ZM325.59,172.53l1.47,5.13h5.87c1.47-2.93,7.33-4.4,11-4.4-2.93-.73-6.6-2.93-8.06-5.13-2.2,4.4-7.33.73-10.26,4.4ZM331.46,187.19c-.73,0-2.2-.73-2.2-1.47.73,1.47.73,3.67,2.93,3.67h1.47l-.73-3.67c-.73.73-.73,1.47-1.47,1.47ZM337.32,161.53c.73-.73,2.93-.73,4.4-.73v-2.2l-5.13-.73.73,3.67ZM338.79,163.73l.73,2.93-1.47.73h3.67s-.73-.73-.73-1.47c0-1.47.73-2.2,1.47-3.67l-3.67,1.47ZM401.11,305.96c-2.2,2.93-2.93,6.6-2.93,11l-2.2,2.2,2.2-1.47c0,2.2.73,4.4,1.47,5.87v2.2l8.8,5.86,1.47-8.06-5.13,1.47h-.73l2.2-2.93c0-.73.73-2.2.73-2.93h1.47v-2.2l1.47-3.67,5.13-2.2-2.2-8.06-2.2-1.47c3.67-3.67,5.87-8.8,5.13-12.46.73.73,2.2,2.2,3.67,2.2l2.2,8.8v-3.67l2.93.73-2.93-3.67,3.67-1.47-3.67-10.26,5.86-5.13-1.47-.73,1.47-8.8-7.33-2.2,4.4,2.93-2.93,3.67,2.93,3.67-3.67,1.47-.73-2.2-5.87-4.4,4.4-3.67-6.6-.73c.73-.73.73-1.47.73-2.2l3.67-5.87v2.2c2.93-.73,5.87-1.47,8.8-1.47-2.2-1.47-6.6.73-7.33-2.93l3.67-2.2-3.67.73c-.73-1.47-1.47-2.2-2.93-2.93l2.93-5.86-4.4-2.2.73-.73-1.47-2.2h1.47l3.67-3.67c0-2.2-2.2-3.67-4.4-4.4l-2.93-4.4c0-1.47,0-2.93-.73-3.67l5.13-.73c0-2.93-2.93-5.13-5.13-6.6,1.47,1.47,2.2,3.67,2.2,5.86l-2.2.73c-2.2-3.67-5.87-5.13-9.53-5.87l2.2-5.86,2.93.73v-1.47c0-1.47-.73-2.2-2.2-2.2,2.2-7.33,2.93-17.6,1.47-21.99l-8.8,4.4v.73h-2.2c1.47-3.67-1.47-6.6-4.4-2.93l-6.6,6.6c0-1.47-.73-2.2-2.93-2.2l1.47-1.47-.73-.73,1.47-2.2c1.47-3.67-1.47-6.6-4.4-2.93-.73.73-1.47,1.47-2.2,1.47h-5.13l2.2,2.93-2.93,1.47c.73-2.2.73-3.67-.73-4.4,3.67-3.67,8.06-6.6,11-11,0-.73.73-1.47.73-2.2l5.87,2.93-5.87-7.33c.73.73,1.47,2.2,1.47,2.93s-.73,1.47-1.47,1.47v-2.93c0-1.47-.73-2.2-.73-2.93l-4.4-2.93c-5.86.73-10.26,2.93-15.4,5.13h-2.2c-.73-.73-2.2,0-2.93,1.47-1.47,0-2.2.73-3.67,1.47h-.73v.73c-.73,0-1.47.73-1.47.73,0,1.47.73,3.67.73,5.86v2.93l.73-.73v2.2c1.47,0,2.2-.73,3.67-.73-.73.73-2.93,1.47-4.4,1.47s-2.2,0-2.93-1.47l1.47-3.67-3.67-3.67-2.2,1.47,2.93,2.2v4.4h-2.2l-.73,3.67,13.93,2.93,2.2-2.93-2.93-4.4c0,.73.73.73,1.47,1.47l4.4-2.2-3.67,7.33c1.47,1.47,2.2,2.93,2.93,4.4,1.47,0,2.93-.73,3.67-1.47l.73,1.47-2.2,4.4,4.4,7.33c3.67-1.47,6.6-2.2,10.26-5.13v.73l.73,1.47,1.47-2.2c.73.73.73,2.93.73,3.67,5.13,0,11.73-1.47,16.13-3.67,0,1.47-1.47,2.93-2.2,4.4-.73-.73-1.46-1.47-2.93-1.47q-.73,0-.73.73c0,.73.73.73.73,1.47s-1.47,2.2-2.2,2.93l2.2,1.47-5.13,5.86-1.47,6.6c.73,2.2,4.4,2.93,7.33,4.4-2.2.73-4.4,1.47-6.6,2.93l.73-3.67c-1.47,2.2-2.93,4.4-2.93,5.87l-2.2,2.2c.73,2.93,1.47,5.87,1.47,8.8,1.47.73,3.67.73,5.87.73v2.93c0-.73.73-2.2,1.47-3.67,1.47,0,2.93,0,4.4-.73v.73c.73,0,2.2,0,2.93-.73v.73l-3.67,3.67v-.73c0-.73-.73-1.47-1.47-1.47l-.73,2.2c0,.73.73,1.47,1.47,1.47-.73.73-.73,1.47-.73,2.2h-.73v8.8c0,2.93,1.47,5.86,2.2,8.8l4.4-2.93-.73-5.13,1.47,1.47,3.67,2.93c-.73.73-1.47,1.47-1.47,2.2-2.2.73-2.93,3.67-1.47,5.13.73,1.47,1.47,2.93,3.67,3.67-.73.73-.73,1.47-.73,2.2h2.93v2.93l-7.33,2.2v10.26l-2.2,6.6c2.2,1.47,3.67,2.93,5.13,5.13ZM347.59,170.33l.73,1.47c.73,0,0-2.93,1.47-3.67-1.47,0-2.2.73-2.2,2.2ZM355.65,163l-1.47-2.2-2.93,2.2c0,.73-.73,3.67-.73,3.67,0,1.47,0,4.4,2.2,4.4h1.47v-5.87h7.33l2.93-4.4-8.8,2.2ZM382.78,555.95h2.2v.73h-4.4l3.67.73v1.47s0,.73.73,1.47l-5.87,4.4v7.33c4.4.73,9.53.73,13.93,0-1.47,1.47-3.67,2.93-6.6,4.4-.73,3.67-2.2,7.33-3.67,11,1.47,1.47,2.93,1.47,5.13,1.47l-12.46,6.6c0,3.67-.73,7.33-1.47,11,2.2,2.2,8.06,2.2,13.93.73-2.2,2.2-3.67,4.4-3.67,6.6l4.4,4.4h2.93l.73.73h-5.13l2.2,3.67,5.13-1.47v.73h.73l1.47,3.67c4.4,0,5.86,0,8.06-.73.73.73,1.47,2.2,2.2,2.2s1.47,0,1.47-.73c5.13.73,12.46-1.47,12.46-4.4,1.47-.73,2.2-2.2,1.47-2.93v-2.2c0-4.4-2.2-5.87-5.13-6.6l-1.47-3.67c2.93-1.47,1.47-3.67-.73-8.06l-2.2-2.2c.73-.73.73-1.47.73-2.2h1.47c0-1.47.73-2.2.73-3.67.73-.73,1.47-1.47,1.47-2.2h1.47l-1.47-.73c0-.73-.73-1.47-1.47-1.47l-1.47-1.47c-.73-.73-.73-1.47-1.47-1.47,0-.73.73-.73.73-1.47,2.93-.73,5.86-1.47,8.06-1.47,2.2-2.2,2.93-3.67,2.2-5.87l-2.2-2.2c-.73-.73-1.47-1.47-2.2-1.47,0-1.47,0-2.93-1.47-3.67.73-3.67-2.93-4.4-5.13-2.2-.73,0-1.47-.73-1.47-1.47-1.47-2.93-4.4-2.2-5.86,0l-1.47-2.2c-2.2,0-3.67,0-5.13.73,0-.73.73-1.47.73-2.2v-.73c2.93-2.2,5.87-4.4,8.8-7.33,3.67-2.93.73-5.87-2.93-4.4l-.73.73c2.2-2.93,3.67-5.13,4.4-8.8.73-1.47,0-2.93,0-3.67l.73-5.87c-4.4.73-8.8,5.13-11.73,8.06l2.93,1.47c-2.2,2.2-5.13,3.67-7.33,5.13,1.47-1.47,1.47-3.67-.73-5.13-.73-5.13,0-2.93-4.4-5.13-1.47-4.4-6.6-1.47-6.6,2.2-1.47-1.47-.73,5.13,0,7.33l2.93,2.2c-.73.73-.73,1.47-.73,2.2-.73,2.2-2.2,5.87-1.47,8.06ZM384.98,371.21c1.47,0,2.2.73,2.2,2.2.73,0,2.2-.73,2.2-1.47,0,0,0-.73-.73-.73,2.2-.73,3.67-2.2,4.4-4.4,3.67-2.2,2.93-2.93-.73-3.67-1.47-2.2-3.67-1.47-5.13-.73,1.47-2.93,5.13-3.67,8.06-4.4h-8.06l4.4-1.47,1.47-2.93c1.46-.73,2.2-1.47,2.93-2.93,4.4-2.93,5.13-3.67,0-5.87l2.2-1.47v-3.67l2.2-2.93c2.2-2.2,4.4-7.33-1.47-5.86-2.93-2.93-4.4-.73-7.33,2.2-2.93.73-3.67,6.6,0,6.6,0,.73.73.73,1.47.73l-.73,2.2-4.4-.73,2.2,2.93c-.73.73-.73,1.47-.73,2.2s-.73,2.93,0,3.67v1.47c-2.93,2.2-6.6,4.4-9.53,4.4h-1.47l2.93-6.6-5.87,3.67,2.2,5.86-1.47,3.67,7.33,5.87,2.93-2.2v2.2l-1.47,2.2ZM382.04,209.92h-4.4c.73.73,2.2,1.47,3.67,1.47.73,0,.73-.73.73-1.47ZM379.85,429.12c0-.73,2.2-1.47,2.93-1.47l-.73-3.67-4.4.73,2.2,5.13c0,.73,0,1.47.73,1.47l-.73-2.2ZM380.58,373.41c.73,2.2,2.2,4.4,4.4,5.13l.73-3.67c-.73,0-2.2,0-2.2-.73s.73-.73,1.47-1.47l-2.93-1.47-1.47,2.2ZM387.18,362.41c-1.47.73-1.47,2.2-1.47,2.93l-4.4-5.87,5.87,2.93ZM392.31,473.11l-.73-1.47-2.2,1.47c1.47-1.47,2.2-3.67,1.47-5.13,0-.73.73-2.93,2.2-5.13l.73.73c0-3.67,3.67-2.93,5.13-5.87l-3.67,1.47c2.2-2.2-1.47-5.87-3.67-3.67v-.73l-1.47,1.47c-3.67-1.47-8.8,7.33-8.8,11,.73,1.47.73,3.67.73,5.87h4.4c0,.73.73.73,1.47.73,0,2.2.73,3.67.73,5.13-1.47,2.2-2.2,4.4-2.93,7.33,0,1.47.73,2.2,1.47,3.67l-2.2.73,2.93,3.67.73-1.47c2.93,2.93,0,5.87,2.93,11l2.2,1.47c1.47-.73,2.2,0,2.93,0,3.67,1.47,8.06-3.67,3.67-5.87l-.73-.73c2.2-6.6,2.93-5.87,2.93-12.46-.73-1.47-1.47-2.93-2.93-4.4h-.73v-1.47c2.2-4.4,2.2-8.06,1.47-12.46-.73-4.4-5.13-2.2-6.6,1.47l-1.47,3.67ZM384.98,380.01c-.73,0-1.47-.73-2.2-.73h-.73l2.93.73ZM384.98,183.53c0,1.47.73,3.67,2.2,4.4-.73-.73-.73-1.47-.73-2.2,0-2.2.73-4.4,1.47-5.86l-2.93,3.67ZM384.98,258.31l.73,6.6,1.47-9.53-2.2,2.93ZM386.44,333.82l2.93-1.47c-2.2,0-2.93,0-2.93,1.47ZM387.91,525.16l4.4,1.47c2.93-1.47,8.8-2.2,6.6-5.86,1.47-3.67-1.47-5.87-4.4-2.93-2.2-3.67-6.6,0-5.13,3.67l-1.47,3.67ZM395.97,192.32c-.73,2.93-3.67,4.4-6.6,5.13l3.67-4.4c.73-.73,1.46-.73,2.93-.73ZM389.38,660.06h35.92c23.46,0,32.99-18.33,28.59-38.86-2.2-9.53-3.67-19.06-3.67-30.06v-106.3c0-7.33-1.47-14.66-3.67-21.26,8.06,11.73,16.86,26.39,16.86,43.25v106.3c0,13.2,1.47,23.46,3.67,32.99,2.93,12.46-2.2,23.46-16.13,23.46h-49.12c-5.13,0-8.06-2.2-10.26-5.13-.73-.73-.73-1.47-.73-1.47-.73-1.47-1.47-2.2-1.47-2.93ZM389.38,478.24v-1.47l1.47-.73c-.73.73-1.47,1.47-1.47,2.2ZM396.71,297.89l-5.87,6.6v3.67l2.93.73c2.2,0,4.4-1.47,4.4-3.67-1.47-.73-2.2-2.2-2.2-3.67v-.73c0-.73,0-1.47.73-2.93ZM392.31,544.96c-.73.73-.73,1.47-1.47,1.47v-.73q.73,0,1.47-.73ZM391.58,357.28l4.4.73v-3.67l-4.4,2.93ZM392.31,179.86c.73.73,2.2.73,3.67.73h.73c-2.2-2.2-2.2-4.4-4.4-6.6v5.87ZM393.04,369.74l-.73,4.4,9.53-3.67c-2.2,0-4.4,0-4.4-2.93l-4.4,2.2ZM396.71,561.82c-1.47.73-2.2.73-2.93.73l5.87-3.67-2.93,2.93ZM396.71,260.51l-1.47-1.47h2.93c0,.73-.73.73-.73.73q0,.73-.73.73ZM395.97,514.9c1.47-.73,3.67-1.47,3.67-2.93l-.73-.73-2.93,3.67ZM401.11,391.73c.73,0,2.2,0,2.93-.73l-2.2-2.93c-.73.73-2.2.73-2.93.73s-2.2,0-2.2,2.93h4.4ZM399.64,347.01c2.93.73,2.93,2.93,2.93,5.13l2.93-2.2-3.67-4.4-2.2,1.47ZM401.84,360.21l2.2.73c.73,0,1.47-.73,1.47-.73l-2.93-2.93-.73,2.93ZM402.57,370.47l4.4-.73-2.2-3.67c0,2.2,0,3.67-2.2,4.4ZM404.04,521.5s.73-.73.73-1.47c0-1.47-.73-2.2-2.2-2.2l1.47,3.67ZM404.04,376.34l.73-.73c0-.73-.73-1.47-1.47-2.2,0,2.2,0,2.93.73,2.93ZM407.71,358.01l.73-3.67-3.67-.73c0,2.2,0,4.4,2.93,4.4ZM408.44,605.07c-1.47,1.47-2.2,2.2-1.47,2.93l-1.47-.73,2.93-2.2ZM407.71,533.23l-.73,1.47c.73,0,1.47,0,2.2.73l-1.47-2.2ZM409.17,609.47l-1.47,2.2c0-.73,0-1.47-.73-2.93.73.73,1.47.73,2.2.73ZM412.84,506.1l-2.93,1.47,11,.73-8.06-2.2ZM410.64,357.28l2.2,5.86,2.93-8.06-1.47-6.6-3.67,8.8ZM416.5,283.97c.73-.73.73-1.47.73-2.2.73-.73,1.47-.73,2.2-.73,0,2.2-1.47,2.93-2.93,2.93ZM417.97,310.36c-.73.73-1.47,1.47-1.47,2.93s.73,2.93.73,4.4c0,.73,0,1.47-.73,2.2l3.67.73-2.2-10.26ZM417.97,304.49h.73c.73,0,.73-1.47.73-2.2v-2.93l-1.47,5.13ZM420.9,239.24l-2.2,4.4,1.47,2.2,4.4-1.47c-2.93-.73-.73-7.33-4.4-7.33l.73,2.2ZM423.83,238.51l1.47-2.2-5.87-9.53,4.4,11.73ZM419.43,339.68c0-.73.73-1.47.73-2.2s0-.73-.73-.73v2.93ZM420.9,249.51h2.2c0-.73.73-.73.73-1.47s-1.47-.73-2.2-.73c-.73.73-.73,1.47-.73,2.2ZM436.3,441.59c-2.2-4.4-5.13-8.06-7.33-11.73l-2.93-3.67c-2.2-5.87-3.67-11.73,0-16.86,16.86-27.12,32.26-65.98,32.26-118.77,0-39.59-4.4-71.11-12.46-96.04,17.59,25.66,25.66,63.78,25.66,118.03,0,50.59-14.66,87.24-30.06,112.17-3.67,5.86-5.13,11.73-5.13,16.86Z"/>
    <path class="cls-2" d="M557.55,198.06v-8.66c0-21.51-5.68-32.56-16.73-32.56s-16.43,11.05-16.43,32.56c0,9.56,8.96,20.31,26.29,31.66,28.08,17.92,43.02,38.54,43.02,59.74,0,40.92-18.22,62.43-52.87,62.43s-52.57-21.51-52.57-62.43v-8.96c0-3.29,2.69-5.97,5.97-5.97h24.2c3.29,0,5.97,2.69,5.97,5.97v8.96c0,21.51,5.68,32.56,16.43,32.56s16.73-11.05,16.73-32.56c0-11.65-8.96-22.7-26.59-32.26-27.78-16.13-42.72-36.44-42.72-59.15,0-40.92,18.22-62.43,52.57-62.43s52.87,21.51,52.87,62.43v8.66c0,3.29-2.69,5.97-5.97,5.97h-24.2c-3.29,0-5.97-2.69-5.97-5.97ZM506.47,293.35h-.9v1.19l-1.19,1.49-1.49-1.79c.6-.3,1.2-.9,1.49-1.49.3,0,.3-.3.6-.6,1.49-.3,2.99-.3,3.88-2.09l-.6-.6.9-1.19c1.49-1.19.3-2.39-1.2-1.79-.6.3-.9.6-1.19.6l.3-.3,1.79-1.49h-.6c.3-.9.9-1.79.9-2.39,0-.3,0-.6.3-.9.6-1.19-.6-2.39-1.49-1.49h-1.79c.9-.9,1.79-2.69,2.09-3.88l-2.69-2.39c0,1.19-2.09,1.19-3.29,2.09-1.49,1.19-2.39,3.29-3.58,5.08l1.2.9.3.3v.3l.6,1.79c.9.6,1.79.9,2.69.9l-1.2.9c-.6,0-1.19,0-1.19-.6-.3.3-.3.6-.3.6l-1.19,2.69-1.49.9c-.3-.3-1.49,0-2.09.6l-1.49,1.79,1.49,2.09h2.09v.9c1.79.3,2.09.3,3.58-.6.3.9.6,1.79,1.49,1.79.3,0,.6,0,.9-.3-1.2,1.49-2.09,3.58-2.39,5.38l.9.9c0,.3-.3.3-.3.6h.6c.6,0,1.2,0,1.79-.3-.9,1.19-1.49,2.69-1.2,3.58.9,3.58,7.17,4.48,10.16,4.48,1.49,0,2.69-2.09.9-2.69-2.39-1.19-2.09-3.58-6.27-4.48l1.2-2.99c.9-2.09-.9-2.09-2.09-.9l-1.49,1.49-.3-.6c1.49-1.49,2.69-2.99,3.88-4.78,0,0,0-.3.3-.3.3.6,1.79,1.79,1.79.9,0-.6-1.19-.9-1.79-1.19.9-1.49,1.49-2.99,2.09-4.48.6-1.49-.6-2.69-1.79-1.19l-3.58,3.58ZM499.3,187.9c-1.49.9-2.69,1.79-3.29,2.69v3.58c2.09,1.79,4.78,1.19,7.17.6v.6c.3.3.6.9.6,1.49,0,0,0,.3.3.3l-.6.6c0,.9-.3,1.79-.3,2.69.9,0,1.79.3,2.69.3.6.3,1.19.3,1.49-.3l.3.3v.3c-1.49,1.49-.3,1.2-1.49,3.29l2.09,1.49c1.2-.3,2.99-1.19,2.99-1.19,1.19,1.19,2.99-.6,2.09-1.79,0-.3,0-.9-.3-1.49.6,0,1.2-.3,1.2-.9v-.3c-1.49-.3-2.09-1.79-2.09-3.29v-.9l-.9.3c.3-1.19-.6-2.09-1.49-1.19h-.3l-.3-1.49,1.49-2.39-2.09-2.09c1.79-.6,3.58-.9,3.58-2.39l-1.19-3.58c-.3,0-.3.3-.6.3,0-.6-.9-1.19-1.49-.9,0-.6-.3-.9-.6-.9,0-.3-.3-.3-.3-.3.3-.3.6-.6.6-.9v-.6c-.6-1.79-2.69-.6-2.69.9v1.19c-.9.3-.9.6-1.79,1.2l.6,1.19-.9,1.49c-.3,0-.6,0-.9.3,0-1.49.3-4.18,0-5.38.6-2.09-2.09-1.79-2.69,0-.9,1.19-1.79,5.08-.9,7.17ZM500.8,286.78l.9.6-.9.6v-1.19ZM511.85,159.82c.6-1.49-.6-2.69-1.79-1.19-7.17,4.78-7.17,9.86-8.96,18.22,0,.9.6,1.19,1.49,1.19,0,.6.3,2.09,1.2,2.09-.3-.6-.3-1.49,0-2.39,0,.3.3.6.6.6,1.19,1.19,2.99-.3,2.39-1.49-.3,0,.3-.9,1.19-2.09.6,0,1.49-.6,1.49-1.19l-.3-.3,2.99-4.78c1.49-1.19,2.09-2.99,2.09-5.08v-.3c.6.9,2.09,1.19,3.29,1.19v-2.69h-.6c-.9,0-1.79.6-2.39.6-.3-.9-1.49-.6-2.39.3-2.39,2.39-3.29,3.88-3.58,5.08h-.9c1.2-2.69,2.69-5.08,4.18-7.77ZM516.33,212.1c1.19,1.2,2.99-.3,2.39-1.49l-.9-1.79c-.6-1.19-1.49-.9-2.09,0v-.9c-.3,0-.6-.3-.9-.3.6-2.09-.9-2.09-2.09-.9-1.49.6-3.29,2.39-1.19,3.58l1.79.6c0-.3.3-.6.3-.6.6,0,1.2-.3,1.49-.9,0,.3,0,.6.3.9l.9,1.79ZM510.65,202.54h.3c0,.3,0,0-.3,0ZM515.43,314.26c1.19-1.2,1.19-2.99-.9-2.09-.3,0-.6.3-.9.3-1.49.6-1.49,2.99.6,2.39l1.2-.6ZM516.33,160.72c1.19,0,1.79-.6,2.09-1.79-.9.3-2.09.3-2.09,1.79ZM522.6,217.78c1.49.6,3.29-1.49,1.49-2.39,0-.6-.6-.9-1.19-.9-.9-1.79-2.99,0-2.39,1.49-.6,2.69-.6,2.39,2.09,1.79ZM524.99,146.68c-1.2-.3-1.2.3-1.49,1.79,0,.6,0,1.19-.3,1.79-.3.3-.3.9-.3,1.19h.3c.3,0,.6-.3.6-.6,1.2.9,2.99-.6,2.39-1.79.6-1.2.3,3.29,1.19-.6l.3-.3.6-.9.6-.3c.3,0,.9-.3,1.79,2.39.6-.3,2.99-.9,2.69-1.79,0,0,0-.3.3-.6s.6-.6.6-.9c2.09.6,3.58.6,5.08,0,.3,1.79,0,3.58.3,5.38l1.19-5.97.3-.3c1.49-.6,2.39-2.39.6-2.69-.6-.3-1.2-.6-1.79-.6-.9-1.19-1.79-2.69-2.69-2.69l-.9.3c.9.6,1.49,1.49,1.79,2.09-1.49.3-2.69.9-3.88,1.79-.6.3-.9.6-1.2,1.19-1.19-.3-1.49-.3-2.99-.3-.3-1.79-1.19-2.09-1.79-1.79v-.3h-2.69l-.6,4.48ZM525.59,346.82c4.78.9,9.86,1.49,15.23,1.49,37.94,0,57.95-23.3,57.95-67.51,0-7.17-1.79-14.34-5.08-21.51,6.87,9.86,10.46,20.01,10.46,30.47,0,40.92-18.22,62.43-52.87,62.43-9.86,0-18.52-1.79-25.69-5.38ZM528.28,318.74c0-.3-.3-.3-.6-.3s-.6.3-.9.6c.9,0,1.49,0,1.49-.3ZM538.14,137.72v-.3c0-.6,0-1.19-.9-1.19-2.09,0-5.68.6-7.77,1.49l4.78-.3c.6,0,2.39,0,3.88.3v.6l2.09.6c-.3-.6-1.2-.9-2.09-1.19ZM535.15,201.94c-3.58-4.48-5.68-8.66-5.68-12.55,0-18.22,3.88-27.48,11.35-27.48,2.99,0,5.38,1.49,7.17,4.18-8.66,2.09-13.14,12.85-13.14,32.26,0,1.2,0,2.39.3,3.58ZM536.34,307.09c-4.48-2.99-6.87-11.95-6.87-26.29v-5.97c2.99.3,5.38,2.99,5.38,5.97v8.96c0,6.87.3,12.84,1.49,17.33ZM530.37,142.8c1.2-.3,2.69-.3,3.88,0,0-.6,0-1.49-.9-1.49s-1.49.3-2.39-.3l-.6,1.79ZM536.64,323.82c-.9-.6-2.69.3-2.09,1.79,0,.6,0,1.19-.3,1.79l2.09.9c1.49-.9,1.79-.6,2.69-2.09.9-.9,1.79-2.99-.6-2.39h-1.79ZM547.99,238.99c1.49.6,3.29-1.49,1.49-2.39-.9-3.58,0-1.19-1.79-1.19-.3-.3-.6-.6-.9-.6l-.6-.6c-.6-1.79-4.48-1.49-4.48-1.49-.9-1.79-2.99,0-2.39,1.49-.9,4.48,5.38,2.39,5.38,2.39,0,.3.3.3.6.3-.9,2.39.6,2.69,2.69,2.09ZM549.49,328.01c-.9.6-1.49,1.79-1.49,2.39l.3.9c1.19-.6,3.29-1.19,3.29.6v.6l2.69-1.79c-1.79,0-1.49-1.79-.9-2.99l-1.49-.3-1.19-.3c.9-.3,1.79-1.49,1.49-2.09.6-.9.6-2.39,2.09-2.39l.6,1.79c-.9-.9-2.39.3-2.39,1.49v.3c-.3,0-.3.3-.6.6h.3c-.3,0-.3.3-.3.6l3.29-.6c.3,2.09.6,3.58,2.39,4.48l1.79-1.49c-1.49,0-2.99-1.49-3.29-3.29v-.3l.6-.3-.6-.3c0-1.19,1.19-3.58.3-4.48-1.49.3-2.99,0-4.18-.6l-1.19,1.19,1.19,2.69-.3.3c-.3-.3-.6-.3-.6-.3-2.69-1.19-3.88-1.49-7.17-.9-1.19-.3-2.39.6-2.09,1.79-.6,0-1.2.9-1.2,1.79,0,.3.3.6.6.6v1.79l2.69-2.09q.3.3.6.3c1.49.6,3.29.6,4.78.3ZM551.58,137.42l.6,2.69-3.29-1.19-.9,1.79c-.3-.3-.6,0-.9,0l-.9-3.29-2.69-.6-.6,3.88c.3-1.19,1.49-1.79,2.69-1.19l.6,1.19-.6.9c-.6.3-1.2.9-1.2,1.49l-.3.6q.3.3.6.3c.3.3.6.3.9.3.9.6-2.09,1.19,2.99.9,1.2.6,2.39-.6,2.09-1.49h2.09c-.3-1.49.6-2.39,2.09-2.69,0-.3-.3-1.79.3-1.79l.9.3-1.2-2.69-3.29.6ZM552.18,144.59l-.3.3c-1.19-.6-2.69.9-1.49,2.09-.3.3-.3.9-.3,1.19-.3,0-.3.6-.3,1.19h.3v1.19c.6-.6,1.49-.9,2.09-1.19h.9v1.19c.6,0,1.19.3,1.79.6.3.3,1.49.9,2.69.9l3.88,3.29v-.6c0-.3-.3-.9-.3-1.19.6.3,1.49,0,1.49.6l1.2,1.19c-.3.6-.6,1.49-.6,2.09s.3,1.2.9,1.49c.3-.6.9-1.19,1.19-2.09h.3l-.6,1.19,1.79,2.69.3,1.19c1.19-.6,1.49.6,2.99-.3l-.9.9c-.3,0-.3-.3-.6-.3-.6,0-.9,1.49-1.19,2.09h.6l.9,1.79c.3,0,.6.3.9.6h-.9c0,.6,0,.9.3,1.49,0,1.19-.3,2.39-.3,3.58h.3v1.49h-.3l.3.3c0,.6,0,1.19.3,1.79,0,.9.3,1.19.6,1.19l-.9.9c-.9.3-.6-5.97-1.2-7.17l-.6,9.56-.9.9v3.88c2.39.3,4.48-.9,6.27-2.09,0,.3,0,.6.3.9,2.39-.6,1.49,3.29.9,5.08-.3,0-.6.3-.6.3l1.79,2.99h.3c1.49-1.49,5.38-4.18,6.87-6.57l.3-.6h-.3c.6-.9.6-1.79.6-2.69-.6-1.79-2.69-.6-2.69.9,0,.6-.6,1.19-1.2,2.09.3-2.09,0-4.18-1.19-5.38h.3c1.49,0,2.09-1.79,2.09-3.29l-2.69-.6v-3.58c-.6.6-1.49.6-2.09.3l2.09-1.2,1.49-.9.9-1.49c.6.9,1.2,1.49,2.09,2.09-.3-.9-.9-2.09-2.09-2.39,0,0,.3,0,.3-.3l-1.2-2.09c-.3-.6-.3-.9-.3-1.19l-.3.6-3.29.6c.3-.6.3-1.19.3-2.09l-.9-1.49c-.3,0-.3-.3-.6-.3l-.6-.6h3.29v-.6c0-2.39-1.19-3.88-2.69-5.68.9,1.49-.6,2.69-1.79,2.99l.9,2.99c-.3-.3-1.2-.6-1.79-.6.3-.6.6-1.19,0-1.49.3-.6,0-1.79,0-2.09.3-.9,0-1.19-.6-1.49h-.6c-.6-.3-.3-2.09-1.49-2.09h-.3v1.79l-.6.6v-1.2s.3-.3.6-1.19l-.9-1.19v-.3l-1.2-1.49c-1.79-1.19-2.39-.9-2.09-.3l-.6-.9-.3-.6-.3-.9-.3.3v-.3c-.3,0-.3.3-.3.3-.3,0-.6,0-.9.3l-.3.3-2.69-2.09c.6.3,1.49.3,2.09.3,1.2,0,2.09-.9,2.39-2.09l-2.09,1.19-2.69.3h-1.2c0-.3-.6-.3-1.19-.3,0,0-.3-2.09-3.58-1.49ZM562.93,244.96c0-.3-.3-.3-.6-.3l-.3-.6v.6c-.3,0-.9.3-1.2.6-.3-.9-1.49-.6-1.49-2.09,0-.6.6-1.79.9-2.39l-1.79.9c0-.6-.3-.9-.3-1.49-.3-.6-.9-1.19-1.49-1.49-2.09,0-2.99,0-3.29-.3-.6-1.79-2.69-.6-2.69.9l.3.3c0,2.09,1.19,2.39,2.69,2.99-.3,2.39-1.2,5.97-.9,8.96,1.2,0,2.39.3,3.29.6l1.19-2.39c.9-.6.9-1.19.3-1.79.3-.6.6-1.49.6-2.39.6.3,1.2.3,1.79.3-1.49,2.09-4.78,7.77-.6,7.77v.3l-.6,1.49,1.19.3,1.49-.6c-.3.3-.6.6-.6.9l2.69,2.69.3-.3h.3c.3,0,0,.6.9-1.19l.9-1.79c.6-.6.9-.9.6-1.49,0-.3.3-.6.3-.9l3.29-1.19-7.17-6.87ZM556.06,148.77c.3-.3.6-.3.6-.6h.3c.3,0-.6.6-.9.6ZM561.44,327.71c-.9-.6-1.79-.3-1.79.9l3.29,1.79c-.9-3.58-2.99-6.87-3.29-10.46,0,.3.3.3.6.3-.9,2.09,0,1.49,1.2,2.69,0,2.09,2.39.6,2.69-.6.6-.9.9-1.19.9-1.79,1.79-.3,3.58-1.79,4.78-3.88h.3v-.6c0-.3.3-.6.3-.9.3-.6.6-1.19,1.49-1.19h.3c-.3,0-.3-.3-.3-.6h1.79l1.49-4.18c.6,1.49-.9,2.69-1.2,5.38l2.69-5.38v-3.88l-2.39,2.69v.3c-2.09-.3-3.88-.6-5.68-.3l-.6-1.79c-.3,0-.3.3-.6.3-3.88,1.49-.6.3-4.18,1.79v.6c-.6,0-.9,0-1.49.3l.6-2.09c0-.6-.6-1.19-1.19-1.19h-.9l1.2,1.49c-.9.6-1.49,1.79-1.49,2.99l.3.9-1.79,3.88c.3-.3.6-.9,1.19-1.19,2.69,1.49,6.27,1.19,6.57,2.39-2.39.9-3.58,1.49-6.27.3-1.19-.3-2.39.9-2.09,1.79l-.3-.3-.6.3v1.49l.6.3c.6,0,.6-.6.6-.9v-.3h.3c.3.6.6.9,1.19.9-.6.3-.9,1.2-.9,1.79v.9c2.09.3,2.09,3.58,2.69,5.08ZM558.15,259.3h2.09v-1.19l-.9-.6c-.3.6-.6,1.19-1.2,1.79ZM559.35,152.06h.6q0,.3.3.6c-.3,0-.6-.3-.9-.6ZM560.84,158.93c0,.3.3.9.6,1.19,0-.6-.3-1.19-.6-1.19ZM561.44,253.03c0,.3.3.3.3.3v.3h-.6c.3,0,.3-.3.3-.6ZM564.72,168.19v-4.78l-1.79-2.69-1.49.3,3.29,7.17ZM562.93,250.04c-.9.6-1.49,1.19-1.49,1.49,0-.3.3-1.2.6-2.09.3.3.6.6.9.6ZM564.12,147.58h-1.2v.3l1.2-.3ZM572.19,269.75c-.6,0-.9.3-1.2.3,0-.3-.3-.3-.6-.6-.3,0-.6-.3-.6-.6,1.79-1.49,4.48-4.18,5.08-5.08.6-.3.6-.9.6-1.2.3-.6.3-1.49.6-1.79l-1.79-.3v1.49h-.6c-2.99,1.79-5.97,2.69-8.07,5.38l-2.09,1.19,1.49.6c-.3.6-.6,1.19-.6,1.79l.9.9-1.19.9-.6,3.58c1.79,1.49,3.88,1.49,5.97,1.49q-.3.3-.6.3v.3h-.3v.3c-.3.6-.6,1.19-.6,1.79h1.49l.3,1.19c-1.2.9-2.69,1.79-3.58,2.69h-.3l.3.6c.6.6-.3,2.09-.6,2.39.6,0,.9-.3,1.2,0-.3.6-.3,1.19,0,2.09.9.6,1.79.9,2.39,1.49l1.49-.9c-1.19,1.19-2.09,2.99-2.39,3.58,0,.6,0,1.19-.3,2.09l.3.6c-1.19.6-2.39,1.49-3.58,2.69l-.3-.3c-.3,0-.9,0-1.2.3.3,0,.6.3,1.2.3-.6.9-1.2,1.79-1.49,2.69l2.39,2.39c0,.9.3,1.19.9,1.49v-1.49c1.2,0,2.69-.3,3.88-.9.3.3.6.3.9.3l.6.9h.3c.3.3.6.3.6.3h.3c1.49-.3,2.69-.6,3.88-.6-.3-.3.3-1.19.6-1.79l-.3-.3h.3c-.9-2.69-.3-1.49,0-.6.6-1.19-.3-1.49-.9-1.19l-.6-.9,1.79-2.69-2.09-.6c1.49-1.49,2.69-2.99,3.58-4.48.3-.9,0-1.79-.6-1.79,0-.6,0-.9-.3-.9,0-.6,0-.9-.3-1.49l1.79-.9.6-2.09-2.09-.9,2.09-1.19c-.3-.6-.3-1.19-.3-1.79.6,0,1.2-.3,1.79-.3,1.2-3.58,1.49-4.48-.9-7.77l-.6-.6.6-.6c-.9-2.39-2.99-2.99-5.38-3.88l-.6-2.39c0,.6-.3,1.2-.9,1.49-1.19-.9-2.69.6-2.09,1.79,0,.6,0,.9.3,1.19ZM565.32,266.17s.3,0,.3-.3l-.6-1.79h-1.49c.3.6.9,2.09,1.79,2.09ZM564.12,291.26c.3,0,.9-.3,1.49-.3-.3-.3-.3-.6-.3-.9l-1.19,1.19ZM564.72,262.58l1.19,2.39h.3c1.49-.6,2.69-1.49,3.58-2.69.3.3.9.3,1.19.3v-.3c0-.3-.3-.6-.3-.9.9-1.19,1.49-2.69,2.09-4.18.6-1.49-.6-2.69-1.79-1.19-2.69,1.79-4.48,3.88-6.27,6.57ZM565.62,290.96c.3.6.9.9,1.2.9-.3-.6-.6-.9-1.2-.9ZM574.88,315.76h-.6c-1.19,0-1.19,1.79-2.39,1.79l-.9-.3-.3,2.69-2.39-.6c.6,2.69-2.69,1.19-2.69,2.09,0,.6.3.9.6,1.19l4.48-1.49.9.6,3.29-5.97ZM568.61,149.07c.3,0,.9-.3.9-.9-1.2.9-1.79-.3-2.99-.3l-.3.3c.6.3,1.49.9,2.39.9ZM568.31,209.11h19.42c5.97,0,11.05-5.08,11.05-11.05v-8.66c0-13.14-1.79-24.79-5.38-34.05,7.17,10.16,10.75,24.79,10.75,43.02v8.66c0,3.29-2.69,5.97-5.97,5.97h-24.2c-2.69,0-4.78-1.49-5.68-3.88ZM576.07,273.34c-2.09,0-4.78.3-6.57.3l-.3-.3c1.49-.6,2.99-.9,5.68-.9l1.19.9ZM572.79,287.98v.6h-.3c0-.3.3-.3.3-.6ZM574.28,293.05l-1.19.6c0-.3-.3-.3-.3-.6.6-.3,1.19-.9,1.79-1.49h.9l.9-.3-.9.9-.6-.3-.6,1.19ZM575.48,285.29l.6-.9.3-.3h.6l.3,1.49-1.79-.3ZM577.57,179.54c0-.3-.3,0-.3-.3l.9-.9-.6-.9.6-.6.6,1.19-1.19,1.49ZM577.87,274.53l-.6-.9h.9c-.3.3-.3.6-.3.9ZM577.87,279.31c.3.3.6.6.6,1.19h-.9l-.3-.3c.3-.3.6-.6.6-.9ZM577.27,302.02v.6c.3.6.3.3,0-.6ZM577.87,261.39h-.3c.3.6,1.19.6,1.79.6-.3-.3-.9-.6-1.49-.6Z"/>
    <circle class="cls-1" cx="386.38" cy="386.38" r="379.38"/>
  </g>
</svg>